<svg
	width="283"
	height="283"
	viewBox="0 0 283 283"
	fill="none"
	xmlns="http://www.w3.org/2000/svg">
	<path
		d="M42.18 42.8987C68.4292 16.6495 104.019 1.88466 141.141 1.84375C178.275 1.8439 213.889 16.5955 240.147 42.8534C266.405 69.1114 281.156 104.725 281.156 141.859C281.156 178.994 266.405 214.607 240.147 240.865C213.889 267.123 178.275 281.875 141.141 281.875H22.2234C16.63 281.868 11.2676 279.643 7.31245 275.688C3.35743 271.733 1.1323 266.37 1.125 260.777V141.86C1.16591 104.738 15.9307 69.148 42.18 42.8987ZM90.375 182.344H180.625C183.882 182.344 187.006 181.05 189.309 178.747C191.612 176.443 192.906 173.32 192.906 170.062C192.906 166.805 191.612 163.682 189.309 161.378C187.006 159.075 183.882 157.781 180.625 157.781H90.375C87.1178 157.781 83.994 159.075 81.6908 161.378C79.3877 163.682 78.0938 166.805 78.0938 170.062C78.0938 173.32 79.3877 176.443 81.6908 178.747C83.994 181.05 87.1178 182.344 90.375 182.344ZM90.375 137.219H180.625C183.882 137.219 187.006 135.925 189.309 133.622C191.612 131.318 192.906 128.195 192.906 124.938C192.906 121.68 191.612 118.557 189.309 116.253C187.006 113.95 183.882 112.656 180.625 112.656H90.375C87.1178 112.656 83.994 113.95 81.6908 116.253C79.3877 118.557 78.0938 121.68 78.0938 124.938C78.0938 128.195 79.3877 131.318 81.6908 133.622C83.994 135.925 87.1178 137.219 90.375 137.219Z"
		stroke="white"
		stroke-width="10"
	/>
</svg>
