<svg width="207" height="151" viewBox="0 0 207 151" fill="none" xmlns="http://www.w3.org/2000/svg">
<path d="M190.675 42.7043L204.487 113.638H204.477L204.684 114.811C205.439 119.095 205.247 123.491 204.122 127.693C202.997 131.894 200.966 135.798 198.171 139.13C195.376 142.463 191.886 145.144 187.945 146.984C184.005 148.823 179.709 149.778 175.361 149.781C167.47 149.767 159.905 146.63 154.32 141.057C154.213 140.95 154.14 140.876 154.077 140.802L154.071 140.795L154.064 140.787L120.094 102.214L119.795 101.875H119.343H87.691H87.239L86.9404 102.214L52.9987 140.774L52.7211 141.067C48.241 145.54 42.4527 148.469 36.1955 149.43C29.9337 150.393 23.5281 149.334 17.9089 146.408C12.2896 143.482 7.74919 138.841 4.94681 133.16C2.14443 127.478 1.22598 121.05 2.3248 114.811L2.34902 114.674L2.34184 114.604L16.2744 42.772L16.276 42.7633L16.2776 42.7546C18.3221 31.1158 24.4049 20.5705 33.4563 12.9735C42.5077 5.37647 53.9479 1.21421 65.7649 1.21875H65.7653H141.14C152.925 1.22821 164.334 5.36723 173.383 12.9162C182.409 20.4461 188.519 30.8935 190.656 42.4503V42.5131V42.6096L190.675 42.7043ZM162.632 132.887L162.658 132.916L162.686 132.943C164.748 134.949 167.256 136.438 170.006 137.286C172.755 138.134 175.665 138.318 178.499 137.822C180.843 137.415 183.084 136.546 185.09 135.267C187.094 133.988 188.825 132.324 190.181 130.372C191.551 128.442 192.525 126.261 193.049 123.954C193.573 121.645 193.635 119.256 193.232 116.923L193.23 116.912L193.228 116.902L185.751 78.4061L185.265 75.9009L183.92 78.0698C179.405 85.3508 173.106 91.3587 165.62 95.5245C158.134 99.6903 149.708 101.876 141.141 101.875H137.548H135.335L136.797 103.536L162.632 132.887ZM77.125 68.6563V62.8125H82.9688C85.0491 62.8125 87.0442 61.9861 88.5152 60.5151C89.9861 59.0441 90.8125 57.049 90.8125 54.9688C90.8125 52.8885 89.9861 50.8934 88.5152 49.4224C87.0442 47.9514 85.0491 47.125 82.9688 47.125H77.125V41.2813C77.125 39.201 76.2986 37.2059 74.8277 35.7349C73.3567 34.2639 71.3616 33.4375 69.2813 33.4375C67.201 33.4375 65.2059 34.2639 63.7349 35.7349C62.2639 37.2059 61.4375 39.201 61.4375 41.2813V47.125H55.5938C53.5135 47.125 51.5184 47.9514 50.0474 49.4224C48.5764 50.8934 47.75 52.8885 47.75 54.9688C47.75 57.049 48.5764 59.0441 50.0474 60.5151C51.5184 61.9861 53.5135 62.8125 55.5938 62.8125H61.4375V68.6563C61.4375 70.7365 62.2639 72.7316 63.7349 74.2026C65.2059 75.6736 67.201 76.5 69.2813 76.5C71.3616 76.5 73.3567 75.6736 74.8277 74.2026C76.2986 72.7316 77.125 70.7365 77.125 68.6563ZM118.485 49.4224C117.014 50.8934 116.188 52.8885 116.188 54.9688C116.188 57.049 117.014 59.0441 118.485 60.5151C119.956 61.9861 121.951 62.8125 124.031 62.8125H144.563C146.643 62.8125 148.638 61.9861 150.109 60.5151C151.58 59.0441 152.406 57.049 152.406 54.9688C152.406 52.8885 151.58 50.8934 150.109 49.4224C148.638 47.9514 146.643 47.125 144.563 47.125H124.031C121.951 47.125 119.956 47.9514 118.485 49.4224Z" stroke="white" stroke-width="2"/>
</svg>
