<svg width="350" height="350" viewBox="0 0 350 350" fill="none" xmlns="http://www.w3.org/2000/svg">
<path d="M197.08 10.1491L197.08 10.1493L339.867 152.916L339.89 152.94C352.042 165.115 352.036 184.911 339.875 197.079C333.971 202.979 326.133 206.225 317.794 206.225H312.517H311.517V207.225V312.293C311.517 332.531 295.047 349 274.801 349H218.938C213.826 349 209.683 344.857 209.683 339.746V257.373C209.683 247.333 201.518 239.168 191.477 239.168H158.527C148.487 239.168 140.321 247.333 140.321 257.373V339.746C140.321 344.857 136.176 349 131.066 349H75.2033C54.9571 349 38.487 332.531 38.487 312.293V207.225V206.225H37.487H31.7961C31.4943 206.225 31.1955 206.211 30.8997 206.182L30.8726 206.179L30.8455 206.178C23.0061 205.841 15.6776 202.626 10.1267 197.073L10.1265 197.073C-2.02162 184.926 -2.0427 165.165 10.0667 152.987C10.0953 152.958 10.1231 152.93 10.1456 152.906L10.1468 152.905C10.1717 152.88 10.1909 152.86 10.2093 152.841L152.921 10.1466C158.823 4.24585 166.66 1 175.002 1C183.344 1 191.181 4.24839 197.08 10.1491Z" stroke="white" stroke-width="2"/>
</svg>
