<svg width="340" height="306" viewBox="0 0 340 306" fill="none" xmlns="http://www.w3.org/2000/svg">
<path d="M0.833374 153L85.4167 220.667V169.917H237.667V136.083H85.4167V85.3333L0.833374 153Z" fill="white"/>
<path d="M186.934 0.733003C166.93 0.677539 147.114 4.59187 128.634 12.2493C110.154 19.9066 93.3777 31.1548 79.2759 45.3423L103.196 69.2624C125.56 46.8986 155.299 34.5663 186.934 34.5663C218.568 34.5663 248.307 46.8986 270.671 69.2624C293.035 91.6263 305.367 121.366 305.367 153C305.367 184.634 293.035 214.374 270.671 236.737C248.307 259.101 218.568 271.433 186.934 271.433C155.299 271.433 125.56 259.101 103.196 236.737L79.2759 260.658C108.017 289.416 146.249 305.267 186.934 305.267C227.618 305.267 265.85 289.416 294.591 260.658C323.35 231.916 339.2 193.685 339.2 153C339.2 112.315 323.35 74.0837 294.591 45.3423C280.489 31.1548 263.713 19.9066 245.233 12.2493C226.753 4.59187 206.937 0.677539 186.934 0.733003Z" fill="white"/>
</svg>
