<svg width="271" height="271" viewBox="0 0 271 271" fill="none" xmlns="http://www.w3.org/2000/svg">
<path d="M22.6875 270.875C22.6875 269.875 22.6879 269.875 22.6884 269.875L22.6875 270.875ZM248.321 269.875L248.313 269.875L22.6791 269.875L22.6389 269.874C22.6018 269.874 22.5441 269.873 22.4674 269.87C22.314 269.865 22.0843 269.855 21.7893 269.833C21.1989 269.791 20.349 269.706 19.3265 269.536C17.2768 269.194 14.5591 268.513 11.8535 267.16C9.15178 265.809 6.48052 263.799 4.48244 260.802C2.48854 257.811 1.125 253.778 1.125 248.312C1.125 237.288 6.66617 214.982 26.2149 195.434C45.7344 175.914 79.3046 159.062 135.5 159.062C191.695 159.062 225.266 175.914 244.785 195.434C264.334 214.982 269.875 237.288 269.875 248.312C269.875 253.778 268.511 257.811 266.518 260.802C264.519 263.799 261.848 265.809 259.147 267.16C256.441 268.513 253.723 269.194 251.673 269.536C250.651 269.706 249.801 269.791 249.211 269.833C248.916 269.855 248.686 269.865 248.533 269.87C248.497 269.871 248.466 269.872 248.439 269.873C248.407 269.874 248.381 269.874 248.361 269.874L248.321 269.875ZM182.655 114.968C170.149 127.474 153.187 134.5 135.5 134.5C117.813 134.5 100.851 127.474 88.3448 114.968C75.8385 102.461 68.8125 85.4991 68.8125 67.8125C68.8125 50.1259 75.8385 33.1637 88.3448 20.6573C100.851 8.15099 117.813 1.125 135.5 1.125C153.187 1.125 170.149 8.15099 182.655 20.6573C195.162 33.1637 202.188 50.1259 202.188 67.8125C202.188 85.4991 195.162 102.461 182.655 114.968Z" stroke="white" stroke-width="2"/>
</svg>
