<svg width="363" height="395" viewBox="0 0 363 395" fill="none" xmlns="http://www.w3.org/2000/svg">
<path d="M128.021 53.9822L141.013 20.4443C143.204 14.766 147.059 9.88173 152.073 6.43131C157.087 2.98088 163.026 1.12516 169.112 1.10718H193.888C199.974 1.12516 205.913 2.98088 210.927 6.43131C215.941 9.88173 219.796 14.766 221.987 20.4443L234.979 53.9822L279.092 79.3622L314.745 73.9236C320.682 73.1178 326.724 74.0951 332.104 76.7312C337.484 79.3674 341.958 83.5434 344.959 88.7286L357.045 109.879C360.142 115.146 361.569 121.229 361.137 127.325C360.706 133.42 358.436 139.242 354.628 144.021L332.571 172.12V222.88L355.232 250.979C359.04 255.758 361.31 261.58 361.741 267.675C362.173 273.771 360.746 279.854 357.649 285.121L345.564 306.271C342.563 311.457 338.088 315.633 332.708 318.269C327.328 320.905 321.286 321.882 315.349 321.076L279.696 315.638L235.584 341.018L222.591 374.556C220.4 380.234 216.545 385.118 211.531 388.569C206.518 392.019 200.578 393.875 194.492 393.893H169.112C163.026 393.875 157.087 392.019 152.073 388.569C147.059 385.118 143.204 380.234 141.013 374.556L128.021 341.018L83.9078 315.638L48.255 321.076C42.3183 321.882 36.2762 320.905 30.8963 318.269C25.5164 315.633 21.0417 311.457 18.0407 306.271L5.95495 285.121C2.85803 279.854 1.43118 273.771 1.86272 267.675C2.29426 261.58 4.5639 255.758 8.37209 250.979L30.4285 222.88V172.12L7.76781 144.021C3.95961 139.242 1.68997 133.42 1.25844 127.325C0.826899 121.229 2.25374 115.146 5.35066 109.879L17.4364 88.7286C20.4374 83.5434 24.9121 79.3674 30.292 76.7312C35.6719 74.0951 41.7141 73.1178 47.6507 73.9236L83.3035 79.3622L128.021 53.9822ZM121.071 197.5C121.071 209.452 124.615 221.135 131.255 231.072C137.895 241.01 147.333 248.755 158.375 253.329C169.417 257.902 181.567 259.099 193.289 256.768C205.011 254.436 215.778 248.681 224.229 240.229C232.68 231.778 238.436 221.011 240.767 209.289C243.099 197.567 241.902 185.417 237.329 174.375C232.755 163.333 225.01 153.896 215.072 147.256C205.135 140.616 193.452 137.071 181.5 137.071C165.473 137.071 150.103 143.438 138.771 154.771C127.438 166.103 121.071 181.473 121.071 197.5Z" stroke="white" stroke-width="2" stroke-linecap="round" stroke-linejoin="round"/>
</svg>
