<svg width="28" height="30" viewBox="0 0 28 30" fill="none" xmlns="http://www.w3.org/2000/svg">
<path d="M27.5859 7.9735C27.5888 9.02102 27.3862 10.0587 26.99 11.0265C26.5937 11.9943 26.0117 12.873 25.2775 13.6118L11.0805 28.1444C10.5312 28.701 9.87858 29.1423 9.16018 29.443C8.44179 29.7437 7.67175 29.8979 6.89429 29.8966C6.11835 29.8979 5.34979 29.7442 4.63275 29.4442C3.91571 29.1442 3.26432 28.7038 2.71597 28.1484C1.60915 27.026 0.987571 25.5054 0.987571 23.92C0.987571 22.3346 1.60915 20.8139 2.71597 19.6915L12.9721 9.37484C14.512 7.82698 16.9593 7.77615 18.4302 9.26221C18.7863 9.62372 19.0648 10.0557 19.2482 10.5311C19.4316 11.0065 19.5161 11.5151 19.4963 12.025C19.4638 13.0625 19.0397 14.048 18.311 14.7789L8.57803 24.6251C8.3933 24.812 8.14274 24.917 7.88148 24.917C7.62023 24.917 7.36967 24.812 7.18493 24.6251C7.0002 24.4383 6.89641 24.1848 6.89641 23.9205C6.89641 23.6562 7.0002 23.4027 7.18493 23.2158L16.9179 13.3696C17.2953 12.9878 17.512 12.4895 17.5268 11.9662C17.5376 11.728 17.4997 11.49 17.4154 11.2672C17.3312 11.0445 17.2024 10.8417 17.0371 10.6715C16.3327 9.96189 15.1327 10.0127 14.3623 10.7881L4.1071 21.1029C3.37007 21.8513 2.95641 22.8649 2.95677 23.9214C2.95714 24.9779 3.37151 25.9911 4.10907 26.7391C4.8489 27.4854 5.85103 27.9044 6.89577 27.9044C7.94051 27.9044 8.94264 27.4854 9.68247 26.7391L23.8795 12.2064C25.0007 11.0722 25.6155 9.57118 25.6155 7.9735C25.6155 6.37581 25.0007 4.8748 23.8844 3.74555C22.7672 2.61531 21.2834 1.99337 19.7041 1.99337C18.1248 1.99337 16.6411 2.61531 15.5238 3.74555L1.67952 17.6513C1.58766 17.7435 1.47874 17.8165 1.35899 17.8662C1.23924 17.9158 1.111 17.9411 0.981596 17.9406C0.720247 17.9395 0.470005 17.8335 0.285921 17.6458C0.101837 17.4582 -0.00100875 17.2042 7.45971e-06 16.9398C0.00102367 16.6754 0.105819 16.4223 0.29134 16.236L14.1337 2.33324C15.6194 0.829244 17.5987 0 19.7041 0C21.8096 0 23.7889 0.829244 25.2775 2.33623C26.0117 3.07471 26.5938 3.95322 26.9901 4.92087C27.3863 5.88853 27.5888 6.9261 27.5859 7.9735Z" fill="#1AA5C0"/>
</svg>
