<?xml version="1.0" standalone="no"?>
<!DOCTYPE svg PUBLIC "-//W3C//DTD SVG 20010904//EN"
 "http://www.w3.org/TR/2001/REC-SVG-20010904/DTD/svg10.dtd">
<svg version="1.0" xmlns="http://www.w3.org/2000/svg"
 width="512.000000pt" height="512.000000pt" viewBox="0 0 512.000000 512.000000"
 preserveAspectRatio="xMidYMid meet">

<g transform="translate(0.000000,512.000000) scale(0.100000,-0.100000)"
fill="#DFD3C3" stroke="none">
<path d="M2144 5111 c-140 -23 -210 -65 -321 -193 -101 -118 -142 -173 -288
-383 -64 -93 -146 -207 -182 -253 -35 -45 -76 -107 -90 -138 l-25 -55 11 -457
c6 -251 18 -799 27 -1217 10 -492 19 -770 26 -789 20 -49 107 -125 193 -166
88 -42 187 -67 310 -78 l80 -7 -2 -50 c-8 -226 -6 -283 11 -345 41 -149 130
-260 258 -323 40 -20 90 -39 111 -43 21 -3 46 -14 57 -23 19 -16 19 -17 -6
-86 -14 -38 -30 -90 -35 -115 -17 -83 24 -222 76 -256 31 -20 446 -134 490
-134 28 0 726 181 987 256 224 64 441 143 467 169 24 23 25 31 29 171 5 143
-4 336 -34 786 -8 126 -11 234 -7 242 4 8 37 36 73 62 91 67 208 182 232 228
28 56 37 144 29 288 -5 85 -13 135 -26 161 -18 38 -93 104 -214 187 -69 48
-131 125 -131 165 0 12 10 44 21 70 48 108 -14 205 -142 222 -21 3 -43 11 -48
17 -8 11 -319 589 -370 689 -40 79 -31 121 65 283 86 147 252 494 270 564 30
119 1 254 -84 398 -48 81 -96 127 -149 142 -47 13 -1594 23 -1669 11z m369
-413 c22 -32 37 -64 35 -74 -4 -16 -12 -11 -51 28 -48 49 -140 164 -261 323
l-68 90 154 -156 c84 -85 170 -181 191 -211z m1195 -34 c24 -3 42 -7 40 -9 -1
-2 -193 -9 -426 -16 -344 -10 -446 -9 -543 1 -65 7 -117 15 -115 18 15 14 934
19 1044 6z m292 -69 c0 -3 -60 -105 -133 -228 -190 -315 -273 -464 -293 -523
l-18 -51 -36 38 c-35 37 -40 39 -99 39 -35 0 -115 -4 -179 -10 -64 -5 -182
-14 -262 -20 -565 -42 -613 -48 -708 -90 l-45 -20 6 -60 c5 -63 32 -123 297
-666 114 -234 225 -440 259 -478 30 -34 56 -36 214 -20 278 28 562 73 805 128
148 34 166 42 170 84 6 59 -119 388 -273 722 -37 80 -69 152 -72 160 -3 8 76
-142 176 -334 l180 -349 -5 -56 c-5 -48 -2 -63 20 -104 14 -26 26 -63 26 -81
0 -45 -18 -138 -29 -149 -16 -16 -87 -27 -256 -37 -319 -20 -697 -57 -828 -82
-70 -13 -84 -28 -25 -28 62 0 473 36 743 65 295 32 276 32 268 -6 -13 -67 48
-109 160 -109 108 0 167 49 152 127 -4 25 -15 40 -41 55 -35 21 -38 27 -28 65
6 21 9 19 53 -25 25 -26 89 -71 141 -100 52 -29 108 -64 124 -77 l29 -23 -44
-6 c-24 -4 -338 -36 -697 -71 l-652 -65 -78 53 c-42 30 -99 66 -127 82 -27 15
-61 37 -73 49 -13 11 -163 299 -333 639 -251 501 -309 625 -309 657 0 32 33
106 159 358 87 174 176 358 197 407 20 50 41 95 46 100 13 15 1418 55 1418 40z
m-2536 -450 c-74 -104 -74 -105 -74 -267 0 -175 -16 -339 -38 -388 l-15 -35
-8 65 c-3 36 -10 155 -14 265 -8 214 -2 260 37 310 25 33 139 118 146 110 3
-3 -12 -30 -34 -60z m2019 -333 c41 -45 378 -823 446 -1031 17 -51 18 -66 9
-73 -28 -18 -43 2 -88 122 -83 219 -229 560 -315 737 -71 144 -90 175 -116
189 -29 14 -52 15 -238 4 -341 -18 -758 -59 -883 -86 -23 -5 -28 -3 -28 14 0
38 147 74 355 87 55 3 201 15 325 25 225 20 298 24 441 28 62 2 79 -1 92 -16z
m-238 -326 c71 -35 115 -93 149 -198 32 -95 34 -177 6 -248 -11 -28 -20 -69
-20 -91 0 -80 -39 -102 -92 -52 l-28 27 0 -40 c0 -68 -42 -85 -92 -37 -26 25
-28 25 -34 7 -12 -34 -36 -54 -64 -54 -32 0 -56 24 -66 65 -10 44 -22 55 -63
55 -85 0 -183 92 -216 204 -34 113 -11 214 63 277 133 113 325 149 457 85z
m942 -531 c60 -40 83 -137 43 -188 -48 -60 -152 -57 -190 6 -13 21 -20 50 -20
86 0 47 4 57 35 88 31 31 40 35 71 30 20 -3 47 -13 61 -22z m-185 -477 c2 -19
10 -24 44 -26 33 -2 48 2 73 24 32 27 61 27 61 0 0 -41 -117 -68 -197 -47 -48
13 -55 32 -21 55 30 21 36 20 40 -6z m509 -203 c4 -16 9 -89 13 -161 4 -99 2
-136 -8 -149 -9 -12 -45 -23 -122 -36 -128 -22 -153 -23 -101 -5 80 29 111 80
105 172 -4 71 -23 104 -79 142 -69 48 -176 4 -224 -91 -14 -28 -25 -67 -25
-86 0 -80 67 -150 144 -152 30 0 -903 -163 -1041 -181 -22 -3 -22 -2 -27 182
-2 102 -9 202 -14 223 -5 20 -9 37 -8 38 11 4 1338 137 1355 136 19 -2 27 -9
32 -32z m-205 -80 c77 -53 67 -200 -15 -235 -63 -26 -111 28 -111 125 0 98 64
154 126 110z m123 -352 c-132 -140 -178 -194 -183 -220 -4 -15 5 -171 19 -347
16 -209 25 -393 25 -535 0 -218 -8 -287 -32 -303 -57 -37 -1356 -404 -1371
-388 -3 3 -12 289 -22 637 -16 606 -16 633 1 670 10 21 64 85 119 143 56 58
115 124 133 146 28 37 38 42 84 48 29 4 271 43 538 87 423 70 644 103 715 108
15 1 10 -9 -26 -46z"/>
<path d="M3406 4460 c-43 -8 -60 -26 -105 -110 -63 -119 -100 -265 -75 -290
18 -18 128 -32 207 -27 120 8 160 32 223 137 60 100 104 206 104 249 0 25 -6
34 -26 41 -29 11 -270 11 -328 0z m109 -50 c-9 -14 -166 -123 -171 -118 -4 5
108 98 141 116 25 14 38 15 30 2z m95 -4 c0 -5 -246 -190 -295 -222 -54 -35
-16 3 77 79 135 108 218 163 218 143z m50 -49 c-27 -25 -284 -223 -314 -243
l-29 -18 11 21 c20 37 311 253 341 253 3 0 -1 -6 -9 -13z m-15 -93 c-157 -122
-274 -195 -235 -148 16 19 169 130 207 149 37 19 53 19 28 -1z m-86 -139 c-45
-35 -74 -45 -67 -22 5 14 77 57 97 57 8 0 -6 -16 -30 -35z"/>
<path d="M2670 4443 c-14 -2 -37 -8 -51 -14 -63 -24 -183 -310 -158 -377 10
-28 57 -37 184 -37 87 0 107 3 150 25 43 21 57 37 102 110 57 94 103 205 103
250 0 23 -6 30 -31 39 -30 10 -244 13 -299 4z m80 -58 c-12 -14 -114 -89 -150
-109 -8 -5 -1 6 15 24 49 53 174 132 135 85z m100 0 c0 -4 -246 -189 -292
-219 -92 -60 59 70 196 168 71 51 96 64 96 51z m60 -39 c0 -6 -284 -226 -324
-252 -29 -18 -29 -18 -18 3 13 23 277 228 314 243 29 11 28 11 28 6z m-15 -95
c-20 -18 -217 -162 -237 -172 -18 -9 -18 -9 -9 10 13 23 196 156 226 164 11 2
22 5 25 6 2 0 0 -3 -5 -8z m-55 -114 c0 -2 -20 -18 -44 -35 -46 -33 -71 -41
-64 -19 7 21 108 71 108 54z"/>
<path d="M3179 3289 c-40 -40 -6 -142 55 -163 41 -15 80 19 84 73 3 36 -1 46
-31 76 -41 41 -77 45 -108 14z"/>
<path d="M2996 3248 c-45 -46 -54 -96 -26 -154 47 -96 150 -58 150 55 0 42
-28 109 -51 121 -28 16 -39 12 -73 -22z"/>
<path d="M2780 3140 c0 -56 34 -127 72 -150 16 -10 56 -23 89 -30 33 -7 62
-17 65 -21 9 -16 24 -9 24 11 0 13 -21 31 -67 59 -65 38 -114 82 -161 145
l-22 29 0 -43z"/>
<path d="M3152 3068 c-34 -34 6 -90 48 -68 35 19 20 80 -20 80 -9 0 -21 -5
-28 -12z"/>
<path d="M4190 2868 c0 -52 -3 -58 -35 -87 -34 -30 -35 -31 -12 -31 14 0 37
10 52 22 25 19 27 26 23 75 -7 78 -28 94 -28 21z"/>
<path d="M3444 2136 c-42 -19 -102 -92 -110 -133 -25 -135 61 -223 188 -193
70 17 124 70 133 131 9 61 -9 123 -49 166 -27 30 -40 36 -82 39 -29 3 -62 -1
-80 -10z m105 -41 c40 -20 75 -95 68 -142 -8 -48 -32 -81 -73 -100 -32 -16
-35 -16 -61 3 -61 45 -68 171 -13 226 33 32 40 33 79 13z"/>
<path d="M3543 1940 c-27 -45 -28 -50 -10 -50 18 0 40 42 35 68 -3 19 -6 16
-25 -18z"/>
<path d="M4277 2035 c-32 -55 -32 -55 -6 -55 13 0 25 11 35 35 30 74 12 87
-29 20z"/>
<path d="M4170 1602 c-38 -3 -1062 -156 -1145 -171 -43 -7 -35 -9 65 -10 118
-1 221 12 675 84 209 33 432 79 443 90 9 8 -1 10 -38 7z"/>
<path d="M3825 1280 c-71 -10 -206 -27 -300 -39 -252 -32 -312 -49 -362 -103
-39 -42 -45 -92 -33 -280 13 -203 25 -288 42 -300 18 -13 125 -2 377 37 249
39 377 67 438 96 61 30 81 77 93 225 20 239 8 347 -40 371 -31 16 -53 15 -215
-7z m170 -125 c0 -31 -58 -53 -180 -66 -164 -19 -168 -19 -179 14 -7 18 -6 31
1 38 14 14 203 37 288 36 63 -2 70 -4 70 -22z m-435 -35 c6 -12 13 -82 16
-158 7 -174 -2 -198 -86 -223 -80 -24 -148 -29 -164 -14 -14 14 -36 180 -36
268 0 73 17 126 43 137 12 5 66 9 119 9 88 1 98 -1 108 -19z m-351 -388 c10
-77 21 -99 59 -113 35 -14 571 82 717 128 18 5 18 4 6 -11 -20 -24 -91 -42
-351 -85 -289 -48 -406 -64 -430 -56 -15 5 -20 20 -25 73 -3 37 -10 105 -15
152 -14 118 -12 224 3 257 10 24 13 9 19 -122 4 -83 12 -183 17 -223z m790
309 c20 -13 7 -37 -28 -55 -26 -14 -76 -22 -263 -43 -56 -6 -58 -5 -68 21 -19
51 -23 49 140 70 127 17 200 19 219 7z m-20 -127 c41 -9 41 -38 -1 -60 -17 -9
-91 -23 -169 -32 -150 -17 -169 -13 -169 33 0 27 8 29 140 44 136 16 154 18
161 20 4 0 21 -2 38 -5z"/>
<path d="M3885 1135 c-5 -2 -43 -9 -83 -15 -40 -7 -72 -14 -69 -16 5 -6 227
23 234 30 7 6 -64 7 -82 1z"/>
<path d="M3473 1003 c-61 -80 -76 -103 -93 -147 -15 -40 -5 -32 41 34 23 33
44 58 47 56 2 -3 -5 -17 -15 -33 -31 -44 -35 -53 -24 -53 14 0 53 78 46 90 -4
6 2 22 13 38 23 32 54 92 49 92 -3 0 -31 -35 -64 -77z"/>
<path d="M3864 999 c-69 -10 -152 -37 -117 -38 29 -1 162 25 193 38 31 12 12
12 -76 0z"/>
<path d="M3802 855 c-41 -7 -76 -15 -78 -18 -9 -9 129 6 175 19 45 12 45 12
11 12 -19 0 -68 -6 -108 -13z"/>
<path d="M890 4934 c-128 -34 -236 -111 -266 -189 -22 -59 -15 -164 15 -222
44 -88 95 -127 193 -147 18 -4 37 -21 53 -46 41 -65 89 -78 130 -35 14 16 26
22 30 15 12 -20 63 -11 83 14 14 18 28 24 52 24 42 -1 60 22 60 78 0 23 7 61
15 84 54 153 -48 383 -189 425 -61 18 -104 18 -176 -1z m200 -55 c106 -60 173
-265 122 -371 -16 -31 -20 -54 -15 -81 7 -45 -6 -48 -52 -12 -18 13 -35 21
-39 18 -3 -4 -6 -26 -6 -50 0 -35 -3 -43 -18 -43 -11 0 -27 9 -37 20 -26 28
-41 25 -51 -12 -14 -46 -40 -43 -71 10 -21 35 -22 42 -9 42 32 0 14 21 -56 66
-39 25 -93 68 -120 96 -48 49 -48 49 -48 21 0 -16 10 -49 23 -73 17 -35 34
-51 77 -73 30 -15 47 -25 37 -22 -10 3 -24 5 -31 5 -25 0 -99 76 -122 124 -32
68 -31 128 2 194 29 58 65 92 136 128 96 49 205 54 278 13z"/>
<path d="M1051 4744 c-56 -40 -21 -154 48 -154 60 0 78 60 37 121 -29 42 -56
53 -85 33z"/>
<path d="M865 4680 c-23 -25 -23 -101 -1 -135 19 -28 62 -43 85 -28 31 19 43
59 31 103 -20 74 -76 103 -115 60z"/>
<path d="M1014 4526 c-11 -28 1 -51 25 -51 28 0 47 25 38 49 -8 20 -56 21 -63
2z"/>
<path d="M4166 4295 c-53 -19 -112 -78 -149 -150 -38 -75 -49 -187 -23 -249 9
-21 16 -58 16 -81 0 -47 18 -70 48 -61 14 5 24 -1 37 -20 14 -22 22 -25 53
-21 28 3 43 -1 59 -16 42 -37 97 -19 122 42 10 22 18 27 51 28 115 5 214 123
213 258 0 101 -52 174 -166 232 -101 51 -189 64 -261 38z m219 -56 c71 -26
139 -88 161 -144 30 -80 1 -180 -71 -243 -37 -33 -75 -48 -97 -39 -7 3 -2 6
12 6 54 2 101 46 121 114 13 47 3 47 -47 -1 -26 -24 -68 -53 -93 -64 -25 -11
-54 -27 -63 -36 -20 -17 -25 -37 -6 -26 8 5 9 2 5 -10 -4 -10 -10 -29 -13 -42
-8 -31 -38 -49 -52 -31 -6 7 -15 25 -21 40 -12 32 -22 34 -46 7 -24 -27 -45
-25 -45 3 -1 62 -28 88 -50 46 -21 -38 -44 -19 -46 36 0 28 -6 69 -12 91 -9
33 -8 53 4 100 18 70 68 158 105 185 59 42 155 45 254 8z"/>
<path d="M4118 4113 c-57 -65 -45 -143 21 -143 28 0 68 42 76 81 14 62 -57
107 -97 62z"/>
<path d="M4270 4055 c-34 -36 -40 -115 -11 -144 28 -28 56 -27 86 3 53 53 37
166 -23 166 -17 0 -38 -10 -52 -25z"/>
<path d="M4165 3926 c-25 -18 -15 -51 15 -51 20 0 26 6 28 26 4 31 -18 44 -43
25z"/>
<path d="M710 3911 c-78 -25 -131 -75 -175 -162 -71 -139 -41 -270 76 -333 73
-41 142 -45 205 -13 34 17 55 23 65 16 20 -13 93 -11 107 3 7 7 12 25 12 40 0
21 5 28 20 28 23 0 44 34 37 61 -3 10 -1 19 4 19 5 0 16 11 24 24 15 22 15 27
0 55 -8 17 -20 31 -24 31 -5 0 -17 23 -26 51 -11 32 -32 66 -56 89 -72 70
-201 113 -269 91z m145 -55 c76 -35 111 -70 155 -154 22 -42 40 -81 40 -85 0
-4 -16 -5 -35 -1 -42 7 -47 -9 -15 -49 11 -14 20 -28 20 -31 0 -3 -19 -6 -41
-6 -45 0 -43 4 -22 -62 8 -26 -24 -34 -56 -15 -14 9 -26 20 -26 26 0 19 -14
21 -82 10 -50 -9 -84 -10 -121 -2 -37 7 -52 7 -49 0 7 -22 59 -51 105 -58 l47
-8 -52 3 c-64 4 -138 46 -166 94 -30 50 -27 147 6 214 65 133 175 179 292 124z
m-50 -416 c-3 -5 -12 -10 -18 -10 -7 0 -6 4 3 10 19 12 23 12 15 0z"/>
<path d="M800 3788 c-35 -19 -37 -51 -4 -77 34 -26 78 -27 104 -1 24 24 25 32
3 59 -23 27 -71 35 -103 19z"/>
<path d="M702 3668 c-31 -31 -1 -100 52 -118 83 -27 118 40 51 99 -37 32 -81
41 -103 19z"/>
<path d="M873 3624 c-3 -8 1 -23 10 -31 13 -13 19 -14 31 -3 9 7 16 21 16 31
0 24 -48 26 -57 3z"/>
<path d="M1297 1543 c-4 -6 -3 -23 1 -38 6 -21 24 -37 67 -61 85 -47 237 -94
320 -99 l70 -4 -65 15 c-158 37 -281 94 -356 166 -18 16 -34 26 -37 21z"/>
<path d="M1300 1410 c0 -26 33 -45 98 -59 92 -19 115 -13 46 13 -34 12 -78 32
-98 44 -45 27 -46 27 -46 2z"/>
<path d="M1302 1283 c3 -44 6 -49 38 -65 57 -27 202 -58 277 -58 65 0 71 2 99
33 58 63 108 131 92 125 -9 -4 -54 -12 -100 -18 -92 -13 -218 -7 -316 16 -94
21 -94 21 -90 -33z"/>
<path d="M1818 1258 c-29 -41 -28 -109 1 -225 41 -160 109 -288 204 -388 54
-56 67 -65 97 -64 71 1 74 12 12 44 -79 40 -182 147 -220 226 -49 104 -65 180
-66 316 -1 68 -2 123 -3 123 -1 0 -12 -15 -25 -32z"/>
<path d="M1310 1114 c0 -57 3 -73 16 -78 9 -4 76 -2 148 4 127 11 132 12 159
41 16 17 27 32 25 34 -2 2 -50 9 -108 15 -58 6 -135 22 -172 34 l-68 22 0 -72z"/>
<path d="M1711 1119 c-27 -39 -36 -63 -39 -107 -5 -67 10 -129 38 -165 19 -24
167 -103 176 -94 3 2 -7 24 -20 48 -36 65 -82 205 -97 292 -7 42 -15 77 -18
77 -4 0 -21 -23 -40 -51z"/>
<path d="M1413 1003 c-74 -3 -93 -7 -93 -19 0 -21 42 -34 109 -34 84 0 118 9
136 36 15 24 15 24 -22 22 -21 -1 -80 -4 -130 -5z"/>
<path d="M1601 970 c-18 -33 -22 -52 -19 -88 7 -69 55 -159 121 -225 61 -61
85 -70 48 -18 -50 70 -95 190 -115 310 l-11 63 -24 -42z"/>
<path d="M1320 845 c0 -86 8 -105 46 -105 16 0 36 21 75 77 78 112 76 104 32
98 -21 -4 -64 -2 -95 3 l-58 9 0 -82z"/>
<path d="M1486 824 c-55 -69 -70 -114 -56 -165 14 -49 51 -103 75 -108 10 -2
70 0 134 4 l115 7 -42 35 c-58 48 -127 147 -156 223 l-23 63 -47 -59z"/>
<path d="M1730 755 c30 -79 87 -158 130 -180 20 -10 47 -12 99 -8 39 3 71 8
71 10 0 2 -23 31 -52 63 -40 46 -60 61 -96 70 -24 6 -71 24 -103 40 l-59 30
10 -25z"/>
<path d="M1330 685 c0 -30 6 -32 19 -6 8 14 7 20 -4 25 -11 4 -15 -2 -15 -19z"/>
<path d="M1361 630 c-14 -25 -21 -52 -19 -72 3 -32 4 -33 47 -31 24 1 46 4 49
7 3 3 -8 35 -25 70 l-30 65 -22 -39z"/>
<path d="M2190 553 c-94 -9 -96 -14 -69 -169 24 -147 44 -187 104 -210 25 -9
47 -15 50 -13 2 3 -3 25 -12 49 -21 58 -21 186 1 266 24 92 29 88 -74 77z"/>
<path d="M1949 513 c-14 -37 -14 -196 0 -222 10 -18 59 -51 75 -51 3 0 3 37 0
83 -4 53 -1 106 8 150 l15 67 -44 0 c-38 0 -45 -3 -54 -27z"/>
<path d="M1683 520 c-26 -11 -29 -30 -9 -68 15 -29 83 -98 89 -91 3 2 7 41 11
87 l6 82 -37 -1 c-21 0 -48 -4 -60 -9z"/>
<path d="M1856 460 c-4 -39 -5 -78 -3 -88 3 -9 8 -29 11 -44 4 -15 14 -32 24
-37 17 -9 18 -4 14 77 -2 48 0 104 6 125 10 36 10 37 -18 37 -27 0 -28 -2 -34
-70z"/>
<path d="M1555 510 c-54 -5 -61 -8 -69 -33 -12 -33 -6 -40 61 -66 l52 -20 11
55 c6 30 10 58 8 62 -2 4 -30 5 -63 2z"/>
<path d="M1401 491 l-24 -6 27 -13 c30 -13 46 -9 46 14 0 15 -10 16 -49 5z"/>
<path d="M1806 453 c-10 -63 -7 -108 9 -129 13 -17 14 -10 8 71 -3 50 -7 91
-8 93 -1 1 -5 -14 -9 -35z"/>
<path d="M2068 464 c-9 -9 -11 -169 -2 -212 4 -19 14 -32 27 -36 12 -3 23 -4
25 -2 2 2 -4 28 -12 58 -9 29 -19 86 -24 127 -4 40 -10 69 -14 65z"/>
<path d="M1640 408 c0 -27 12 -40 44 -52 14 -5 16 -3 9 6 -5 7 -19 26 -31 42
l-22 29 0 -25z"/>
</g>
</svg>
