<?xml version="1.0" standalone="no"?>
<!DOCTYPE svg PUBLIC "-//W3C//DTD SVG 20010904//EN"
 "http://www.w3.org/TR/2001/REC-SVG-20010904/DTD/svg10.dtd">
<svg version="1.0" xmlns="http://www.w3.org/2000/svg"
 width="512.000000pt" height="512.000000pt" viewBox="0 0 512.000000 512.000000"
 preserveAspectRatio="xMidYMid meet">

<g transform="translate(0.000000,512.000000) scale(0.100000,-0.100000)"
fill="#000000" stroke="none">
<path d="M2230 4593 c-136 -14 -963 -126 -997 -134 -69 -18 -102 -61 -122
-159 -52 -261 -104 -1378 -104 -2255 0 -526 12 -867 39 -1073 15 -121 30 -167
60 -194 34 -30 679 -201 899 -238 163 -28 243 -24 500 25 288 54 615 138 864
221 229 77 322 117 353 151 44 49 55 162 67 703 6 283 10 340 24 366 16 32 95
106 217 207 82 67 97 95 80 151 -19 63 -58 112 -183 229 -126 117 -196 203
-234 284 -25 55 -52 198 -102 538 -38 263 -44 336 -32 420 14 99 36 116 234
189 213 79 234 104 231 273 -1 47 -8 84 -20 110 -17 34 -25 39 -74 50 -54 11
-869 99 -1190 128 -149 13 -420 18 -510 8z m259 -49 c22 -16 23 -22 18 -88 -7
-96 -39 -176 -86 -219 -22 -20 -69 -45 -117 -62 -237 -85 -291 -114 -329 -180
-57 -96 -51 -348 21 -900 30 -232 46 -300 86 -382 41 -84 119 -167 303 -323
156 -131 195 -177 195 -224 0 -45 -15 -62 -134 -151 -63 -46 -133 -106 -156
-132 -81 -92 -75 -44 -71 -638 2 -291 0 -563 -4 -602 l-7 -73 -59 0 c-105 0
-454 78 -784 175 -220 65 -226 67 -241 90 -18 28 -42 181 -55 365 -16 210 -16
1435 -1 1805 36 858 69 1268 108 1351 9 19 30 42 46 50 16 8 93 24 171 34 78
11 206 28 284 39 121 17 521 63 648 74 100 9 141 7 164 -9z m346 -14 c116 -11
334 -34 485 -50 151 -16 351 -37 445 -45 210 -19 208 -17 208 -137 0 -118 -13
-140 -83 -151 -81 -13 -799 0 -985 17 -269 24 -404 39 -414 46 -6 3 1 30 18
65 38 80 54 155 49 221 l-5 54 36 0 c20 0 131 -9 246 -20z m105 -427 c130 -9
343 -15 540 -15 197 0 317 -3 305 -9 -11 -5 -45 -18 -76 -29 -31 -11 -78 -35
-105 -53 l-49 -32 -199 -4 c-222 -4 -810 12 -1124 31 -198 12 -203 12 -180 30
31 24 139 64 210 78 160 32 280 32 678 3z m583 -210 c-17 -62 -6 -315 21 -480
14 -90 37 -236 51 -325 22 -141 31 -174 65 -243 48 -98 120 -187 237 -289 88
-78 159 -153 151 -161 -2 -2 -37 16 -78 41 -41 25 -183 99 -315 166 l-239 120
37 19 c44 23 85 88 93 151 13 92 -52 176 -155 201 -40 9 -51 16 -51 32 0 11
-5 85 -10 165 -32 487 -39 613 -34 621 3 5 57 9 120 9 l114 0 -7 -27z m-808
-72 l530 -6 6 -45 c4 -25 15 -186 24 -359 15 -258 16 -316 5 -319 -7 -3 -30
-20 -51 -39 -74 -67 -89 -176 -35 -248 l27 -35 -60 0 -61 0 0 51 c0 126 -36
180 -125 187 l-55 5 23 31 c93 121 122 290 69 408 -98 222 -449 307 -629 153
-122 -104 -171 -281 -123 -439 16 -51 33 -79 75 -125 l55 -59 -34 -6 c-18 -4
-40 -14 -49 -24 -25 -28 -39 -98 -32 -157 l7 -54 -33 -5 c-118 -18 -115 -19
-138 34 -12 27 -27 77 -35 112 -35 149 -96 698 -96 857 l0 104 103 -8 c56 -4
340 -11 632 -14z m-75 -288 c5 -21 15 -67 21 -102 13 -71 11 -73 -52 -91 -55
-15 -133 5 -181 48 -26 22 -23 34 23 86 50 56 101 85 171 95 4 1 12 -16 18
-36z m167 -14 c48 -30 100 -93 114 -138 7 -23 10 -43 8 -45 -2 -2 -52 -7 -111
-11 l-107 -7 -6 39 c-3 21 -12 74 -20 118 -8 44 -15 83 -15 87 0 11 101 -21
137 -43z m118 -251 c-14 -63 -36 -106 -58 -112 -39 -10 -87 -6 -117 9 -28 14
-30 20 -30 70 l0 54 88 4 c48 1 95 4 105 5 16 2 18 -3 12 -30z m-241 -38 c4
-32 4 -94 0 -136 l-7 -76 -46 6 c-109 15 -216 103 -245 203 -6 19 -2 22 61 32
55 9 149 22 219 30 7 0 14 -24 18 -59z m726 -237 c33 -23 40 -33 40 -65 0 -20
-8 -31 -30 -43 -44 -23 -78 -19 -111 14 -30 31 -36 59 -19 92 14 25 85 26 120
2z m-367 -45 c16 -22 21 -44 21 -100 l1 -73 -125 -2 c-155 -3 -532 -22 -582
-30 -34 -5 -39 -3 -48 21 -15 39 -1 145 22 168 16 16 30 19 76 15 32 -2 82
-14 112 -25 38 -15 79 -21 131 -22 84 0 138 15 196 55 33 22 47 25 107 23 62
-3 71 -6 89 -30z m285 -225 c17 -3 32 -10 32 -16 0 -30 -44 -164 -57 -174 -16
-12 -72 -1 -83 17 -4 6 3 51 14 101 18 82 22 90 41 84 11 -3 35 -8 53 -12z
m-128 -7 c0 -3 -4 -16 -10 -30 -8 -23 -15 -26 -57 -26 -161 0 -189 -145 -43
-220 117 -60 315 -85 374 -47 38 25 59 78 45 114 -14 37 -54 79 -90 93 -29 12
-36 33 -20 58 7 11 60 -12 242 -102 129 -63 270 -139 314 -167 69 -45 77 -53
59 -59 -52 -20 -827 -114 -1144 -140 -74 -5 -158 -13 -187 -15 l-52 -5 -20 45
c-34 78 -69 113 -284 289 -90 74 -157 149 -144 162 12 12 88 23 237 33 85 6
173 13 195 15 64 5 585 6 585 2z m-40 -140 c0 -52 9 -67 54 -87 55 -25 30 -24
-38 2 -32 12 -66 33 -82 52 l-26 31 22 18 c12 10 33 18 46 18 21 0 24 -5 24
-34z m278 -58 l22 -25 -27 -13 c-16 -7 -59 -14 -98 -16 -49 -2 -61 -1 -39 5
45 11 54 20 70 57 16 38 30 37 72 -8z m505 -314 c-26 -20 -71 -59 -99 -86 -46
-44 -61 -52 -130 -69 -264 -64 -690 -140 -1024 -183 -344 -45 -371 -48 -377
-42 -12 12 30 46 92 75 34 16 88 45 118 64 165 106 269 134 637 173 273 29
602 70 710 88 125 22 128 21 73 -20z m-188 -216 c-4 -13 -9 -86 -12 -162 l-5
-139 -35 66 c-54 103 -75 112 -248 112 -77 0 -221 -3 -320 -7 l-180 -8 215 39
c187 34 450 87 545 111 46 12 48 12 40 -12z m-808 -144 c-3 -3 -12 -4 -19 -1
-8 3 -5 6 6 6 11 1 17 -2 13 -5z m-12 -164 c29 -12 14 -15 -180 -40 -198 -26
-235 -36 -252 -70 -10 -19 -13 -111 -12 -400 1 -270 -2 -375 -10 -378 -6 -2
-24 10 -40 26 -26 29 -28 37 -34 153 -4 67 -7 232 -7 366 0 279 3 295 69 313
107 28 420 49 466 30z m61 -77 c14 -15 16 -31 10 -117 -3 -56 -11 -213 -17
-351 -9 -191 -15 -254 -26 -267 -46 -52 -367 -122 -408 -88 -13 11 -15 64 -15
381 0 346 1 370 19 388 13 13 56 24 167 40 82 12 156 24 164 26 43 9 90 4 106
-12z"/>
<path d="M1770 4375 c-377 -64 -453 -81 -473 -103 -26 -28 -36 -95 -52 -327
-50 -760 -67 -2009 -34 -2600 11 -206 22 -265 52 -293 44 -41 366 -159 567
-207 131 -31 180 -32 206 -4 18 20 19 40 15 484 -3 463 -3 464 19 510 23 48
69 91 215 202 93 71 113 100 101 148 -10 38 -93 123 -216 220 -160 125 -217
197 -249 310 -10 35 -38 273 -96 807 -36 330 -30 486 20 532 13 12 90 53 172
90 81 38 162 78 180 89 65 44 84 127 38 172 -36 37 -98 33 -465 -30z m434 15
c22 -8 26 -16 26 -49 0 -57 -30 -81 -201 -160 -253 -117 -244 -103 -243 -386
0 -182 6 -265 47 -625 26 -228 51 -435 57 -460 26 -108 80 -176 243 -307 193
-154 236 -205 223 -259 -3 -12 -60 -63 -131 -118 -132 -102 -178 -154 -196
-218 -7 -26 -9 -192 -7 -482 3 -491 5 -476 -61 -476 -76 0 -479 124 -611 188
-103 51 -104 57 -121 617 -24 763 30 2490 79 2582 21 38 289 92 767 156 59 8
104 7 129 -3z"/>
<path d="M2543 2673 c-28 -5 -73 -58 -73 -84 0 -110 194 -183 255 -96 56 80
-67 203 -182 180z"/>
<path d="M2769 2465 c-15 -8 -32 -29 -38 -46 -38 -109 158 -214 239 -127 26
29 26 87 0 121 -44 56 -145 82 -201 52z"/>
<path d="M2680 1423 l-35 -18 0 -224 c0 -213 1 -224 20 -237 16 -10 27 -10 59
1 21 8 42 19 46 25 4 6 10 102 13 212 7 221 2 251 -43 256 -14 1 -41 -6 -60
-15z m75 -42 c11 -35 -5 -395 -18 -403 -7 -4 -24 -8 -39 -8 l-28 0 0 209 c0
224 -1 219 52 220 18 1 29 -5 33 -18z"/>
</g>
</svg>
