<svg width="32" height="32" viewBox="0 0 32 32" fill="none" xmlns="http://www.w3.org/2000/svg">
<path d="M7.59989 8.94664C7.47628 9.06999 7.37822 9.21651 7.31131 9.37781C7.2444 9.53911 7.20996 9.71202 7.20996 9.88664C7.20996 10.0613 7.2444 10.2342 7.31131 10.3955C7.37822 10.5568 7.47628 10.7033 7.59989 10.8266L12.7732 16L7.59989 21.1733C7.47644 21.2967 7.37852 21.4433 7.31172 21.6046C7.24491 21.7659 7.21053 21.9387 7.21053 22.1133C7.21053 22.2879 7.24491 22.4607 7.31172 22.622C7.37852 22.7833 7.47644 22.9299 7.59989 23.0533C7.72333 23.1767 7.86988 23.2747 8.03116 23.3415C8.19245 23.4083 8.36531 23.4427 8.53989 23.4427C8.71446 23.4427 8.88733 23.4083 9.04861 23.3415C9.2099 23.2747 9.35644 23.1767 9.47989 23.0533L15.5999 16.9333C15.7235 16.81 15.8216 16.6634 15.8885 16.5021C15.9554 16.3408 15.9898 16.1679 15.9898 15.9933C15.9898 15.8187 15.9554 15.6458 15.8885 15.4845C15.8216 15.3232 15.7235 15.1767 15.5999 15.0533L9.49322 8.94664C8.97322 8.42664 8.11989 8.42664 7.59989 8.94664Z" fill="#E9D990"/>
<path d="M16.3868 8.94661C16.2631 9.06997 16.1651 9.21648 16.0982 9.37778C16.0313 9.53908 15.9968 9.71199 15.9968 9.88661C15.9968 10.0612 16.0313 10.2341 16.0982 10.3954C16.1651 10.5567 16.2631 10.7033 16.3868 10.8266L21.5601 15.9999L16.3868 21.1733C16.1374 21.4226 15.9974 21.7607 15.9974 22.1133C15.9974 22.4658 16.1374 22.804 16.3868 23.0533C16.6361 23.3026 16.9742 23.4426 17.3268 23.4426C17.6793 23.4426 18.0174 23.3026 18.2668 23.0533L24.3868 16.9333C24.5104 16.8099 24.6084 16.6634 24.6753 16.5021C24.7422 16.3408 24.7767 16.1679 24.7767 15.9933C24.7767 15.8187 24.7422 15.6457 24.6753 15.4844C24.6084 15.3232 24.5104 15.1766 24.3868 15.0533L18.2668 8.93328C17.7601 8.42661 16.9068 8.42661 16.3868 8.94661Z" fill="#E9D990"/>
</svg>
