<svg xmlns="http://www.w3.org/2000/svg" xmlns:xlink="http://www.w3.org/1999/xlink" width="793" zoomAndPan="magnify" viewBox="0 0 595.5 567.000005" height="755" preserveAspectRatio="xMidYMid meet" version="1.0"><defs><clipPath id="9ebd485329"><path d="M 56.914062 30.128906 L 515.492188 30.128906 L 515.492188 488.703125 L 56.914062 488.703125 Z M 56.914062 30.128906 " clip-rule="nonzero"/></clipPath></defs><g clip-path="url(#9ebd485329)"><path fill="#000000" d="M 426.324219 30.128906 C 377.15625 30.128906 337.15625 70.125 337.15625 119.296875 L 337.15625 157.511719 L 235.25 157.511719 L 235.25 119.296875 C 235.25 70.125 195.253906 30.128906 146.082031 30.128906 C 96.914062 30.128906 56.914062 70.125 56.914062 119.296875 C 56.914062 168.464844 96.914062 208.464844 146.082031 208.464844 L 184.296875 208.464844 L 184.296875 310.371094 L 146.082031 310.371094 C 96.914062 310.371094 56.914062 350.367188 56.914062 399.535156 C 56.914062 448.707031 96.914062 488.703125 146.082031 488.703125 C 195.253906 488.703125 235.25 448.707031 235.25 399.535156 L 235.25 361.320312 L 337.15625 361.320312 L 337.15625 399.535156 C 337.15625 448.707031 377.15625 488.703125 426.324219 488.703125 C 475.492188 488.703125 515.492188 448.707031 515.492188 399.535156 C 515.492188 350.367188 475.492188 310.371094 426.324219 310.371094 L 388.109375 310.371094 L 388.109375 208.464844 L 426.324219 208.464844 C 475.492188 208.464844 515.492188 168.464844 515.492188 119.296875 C 515.492188 70.125 475.492188 30.128906 426.324219 30.128906 Z M 388.109375 157.511719 L 388.109375 119.296875 C 388.109375 98.148438 405.179688 81.082031 426.324219 81.082031 C 447.46875 81.082031 464.539062 98.148438 464.539062 119.296875 C 464.539062 140.441406 447.46875 157.511719 426.324219 157.511719 Z M 146.082031 157.511719 C 124.9375 157.511719 107.867188 140.441406 107.867188 119.296875 C 107.867188 98.148438 124.9375 81.082031 146.082031 81.082031 C 167.226562 81.082031 184.296875 98.148438 184.296875 119.296875 L 184.296875 157.511719 Z M 235.25 310.371094 L 235.25 208.464844 L 337.15625 208.464844 L 337.15625 310.371094 Z M 426.324219 437.75 C 405.179688 437.75 388.109375 420.683594 388.109375 399.535156 L 388.109375 361.320312 L 426.324219 361.320312 C 447.46875 361.320312 464.539062 378.390625 464.539062 399.535156 C 464.539062 420.683594 447.46875 437.75 426.324219 437.75 Z M 146.082031 437.75 C 124.9375 437.75 107.867188 420.683594 107.867188 399.535156 C 107.867188 378.390625 124.9375 361.320312 146.082031 361.320312 L 184.296875 361.320312 L 184.296875 399.535156 C 184.296875 420.683594 167.226562 437.75 146.082031 437.75 Z M 146.082031 437.75 " fill-opacity="1" fill-rule="nonzero"/></g></svg>