<svg xmlns="http://www.w3.org/2000/svg" xmlns:xlink="http://www.w3.org/1999/xlink" width="793" zoomAndPan="magnify" viewBox="0 0 595.5 842.249979" height="1122" preserveAspectRatio="xMidYMid meet" version="1.0"><defs><clipPath id="1ca34b4729"><path d="M 59.539062 363.003906 L 570.265625 363.003906 L 570.265625 441.507812 L 59.539062 441.507812 Z M 59.539062 363.003906 " clip-rule="nonzero"/></clipPath></defs><g clip-path="url(#1ca34b4729)"><path fill="#e9d990" d="M 531 363.050781 C 520.570312 363.050781 510.59375 367.171875 503.25 374.554688 C 495.859375 381.894531 491.734375 391.859375 491.734375 402.28125 C 491.734375 412.699219 495.859375 422.664062 503.25 430.003906 C 510.59375 437.386719 520.570312 441.507812 531 441.507812 C 541.425781 441.507812 551.402344 437.386719 558.746094 430.003906 C 566.136719 422.664062 570.261719 412.699219 570.261719 402.28125 C 570.261719 391.859375 566.136719 381.894531 558.746094 374.554688 C 551.402344 367.171875 541.425781 363.050781 531 363.050781 Z M 98.804688 363.050781 C 88.375 363.050781 78.402344 367.171875 71.054688 374.554688 C 63.664062 381.894531 59.539062 391.859375 59.539062 402.28125 C 59.539062 412.699219 63.664062 422.664062 71.054688 430.003906 C 78.402344 437.386719 88.375 441.507812 98.804688 441.507812 C 109.234375 441.507812 119.207031 437.386719 126.554688 430.003906 C 133.945312 422.664062 138.070312 412.699219 138.070312 402.28125 C 138.070312 391.859375 133.945312 381.894531 126.554688 374.554688 C 119.207031 367.171875 109.234375 363.050781 98.804688 363.050781 Z M 354.167969 402.28125 C 354.167969 412.699219 350.042969 422.664062 342.695312 430.003906 C 335.304688 437.386719 325.332031 441.507812 314.902344 441.507812 C 304.472656 441.507812 294.5 437.386719 287.152344 430.003906 C 279.761719 422.664062 275.636719 412.699219 275.636719 402.28125 C 275.636719 391.859375 279.761719 381.894531 287.152344 374.554688 C 294.5 367.171875 304.472656 363.050781 314.902344 363.050781 C 325.332031 363.050781 335.304688 367.171875 342.695312 374.554688 C 350.042969 381.894531 354.167969 391.859375 354.167969 402.28125 " fill-opacity="1" fill-rule="nonzero"/></g></svg>