<svg xmlns="http://www.w3.org/2000/svg" xmlns:xlink="http://www.w3.org/1999/xlink" width="793" zoomAndPan="magnify" viewBox="0 0 595.5 567.000005" height="755" preserveAspectRatio="xMidYMid meet" version="1.0"><defs><clipPath id="bb222b30d3"><path d="M 24 45 L 571 45 L 571 406.796875 L 24 406.796875 Z M 24 45 " clip-rule="nonzero"/></clipPath></defs><g clip-path="url(#bb222b30d3)"><path fill="#ffffff" d="M 166.679688 406.449219 C 160.898438 406.449219 155.335938 404.15625 151.226562 400.046875 L 31.027344 279.871094 C 22.492188 271.339844 22.492188 257.507812 31.027344 248.972656 C 39.550781 240.441406 53.40625 240.441406 61.929688 248.972656 L 165.148438 352.175781 L 412.097656 53.839844 C 419.789062 44.53125 433.582031 43.242188 442.867188 50.933594 C 452.167969 58.632812 453.46875 72.398438 445.777344 81.699219 L 183.519531 398.53125 C 179.59375 403.269531 173.859375 406.132812 167.707031 406.429688 C 167.367188 406.441406 167.015625 406.449219 166.679688 406.449219 Z M 287.90625 406.429688 C 294.058594 406.144531 299.785156 403.269531 303.71875 398.53125 L 565.976562 81.699219 C 573.667969 72.398438 572.371094 58.632812 563.070312 50.933594 C 553.769531 43.242188 539.992188 44.539062 532.296875 53.839844 L 285.351562 352.175781 L 280.476562 347.300781 C 271.953125 338.769531 258.097656 338.769531 249.574219 347.300781 C 241.039062 355.835938 241.039062 369.664062 249.574219 378.199219 L 271.429688 400.046875 C 275.539062 404.15625 281.097656 406.449219 286.878906 406.449219 C 287.21875 406.449219 287.570312 406.441406 287.90625 406.429688 Z M 287.90625 406.429688 " fill-opacity="1" fill-rule="nonzero"/></g></svg>