<?xml version="1.0" standalone="no"?>
<!DOCTYPE svg PUBLIC "-//W3C//DTD SVG 20010904//EN"
 "http://www.w3.org/TR/2001/REC-SVG-20010904/DTD/svg10.dtd">
<svg version="1.0" xmlns="http://www.w3.org/2000/svg"
 width="512.000000pt" height="512.000000pt" viewBox="0 0 512.000000 512.000000"
 preserveAspectRatio="xMidYMid meet">

<g transform="translate(0.000000,512.000000) scale(0.100000,-0.100000)"
fill="#DFD3C3" stroke="none">
<path d="M1817 5104 c-302 -54 -525 -295 -583 -626 -51 -295 72 -571 314 -706
46 -26 95 -59 107 -74 28 -33 32 -66 39 -303 3 -93 11 -243 18 -333 8 -114 9
-168 2 -180 -6 -9 -36 -25 -67 -35 -33 -11 -68 -31 -84 -48 -32 -35 -74 -59
-101 -59 -10 0 -47 -14 -81 -31 -46 -23 -72 -45 -101 -84 -28 -37 -59 -64
-107 -90 -149 -83 -324 -198 -366 -240 -37 -36 -50 -61 -73 -132 l-29 -88 -95
-63 c-210 -140 -283 -252 -297 -457 -13 -197 36 -326 176 -465 95 -94 125
-114 606 -402 371 -222 553 -326 780 -444 352 -184 476 -230 640 -240 250 -15
554 143 1310 685 312 223 397 298 445 392 56 109 79 234 60 326 -11 50 -20 65
-66 111 -59 59 -59 58 -55 197 2 55 -2 93 -12 117 -20 48 -80 113 -132 144
-30 17 -44 33 -48 54 -16 76 -132 138 -278 147 -121 8 -206 -10 -279 -58 -31
-22 -66 -39 -76 -39 -9 0 -142 72 -293 159 -344 199 -503 285 -635 346 -93 43
-105 51 -110 79 -4 19 -26 49 -63 82 l-57 53 13 93 c7 51 15 199 18 328 3 129
10 243 15 254 8 15 17 17 51 11 111 -20 371 12 426 53 16 11 44 27 64 35 49
21 59 44 51 122 -6 61 -5 67 16 82 31 22 60 90 60 143 0 25 -11 85 -25 133
-28 95 -44 200 -45 287 -1 139 -55 279 -162 421 -130 173 -238 255 -403 308
-159 51 -331 64 -488 35z m422 -49 c155 -38 320 -148 379 -254 23 -40 23 -41
3 -41 -23 0 -81 -55 -81 -78 0 -11 9 -7 33 16 62 60 118 33 179 -85 54 -104
67 -156 77 -313 8 -121 15 -159 40 -230 33 -93 39 -162 17 -214 -16 -39 -62
-78 -90 -75 -12 1 -26 1 -33 0 -15 -1 -37 -67 -27 -83 4 -7 -2 -5 -13 5 -35
31 -86 20 -108 -23 l-15 -28 -37 19 c-39 20 -70 17 -90 -8 -9 -11 -16 -12 -32
-4 -29 16 -77 13 -96 -5 -15 -15 -18 -15 -39 5 -28 26 -56 27 -88 2 -24 -19
-24 -19 -36 0 -16 26 -38 24 -125 -11 -86 -34 -158 -39 -215 -13 l-37 16 109
13 c156 18 160 34 8 34 -171 0 -192 13 -213 125 -8 45 -6 69 11 140 25 107 25
121 -2 71 -49 -94 -72 -206 -54 -264 4 -12 4 -22 1 -22 -20 0 -132 69 -189
116 -206 170 -271 402 -190 680 104 362 366 543 764 529 69 -2 154 -11 189
-20z m581 -1335 c26 -50 25 -75 -1 -101 -21 -21 -22 -21 -40 -2 -20 19 -29
108 -15 132 14 22 36 10 56 -29z m-99 -63 c25 -41 21 -75 -13 -100 -53 -39
-99 9 -84 88 14 72 56 78 97 12z m-152 -23 c27 -35 28 -90 2 -104 -49 -26 -91
0 -91 56 0 74 48 100 89 48z m-275 -6 c19 -27 21 -79 4 -96 -20 -20 -65 -14
-82 10 -19 27 -21 79 -4 96 20 20 65 14 82 -10z m136 2 c60 -60 9 -146 -66
-111 -19 8 -24 18 -24 49 0 71 48 104 90 62z m-235 -257 c3 -21 8 -46 10 -57
2 -10 0 -118 -5 -240 -13 -303 -31 -375 -100 -411 -28 -14 -31 -14 -37 0 -15
41 61 638 91 709 19 46 34 46 41 -1z m-465 -592 c0 -127 61 -174 248 -190 48
-5 77 -9 65 -10 -12 0 -34 -6 -50 -12 -22 -8 -24 -12 -13 -19 44 -28 -149 2
-256 39 -165 58 -201 179 -67 227 67 23 73 20 73 -35z m538 -72 c24 -23 32
-39 31 -63 -2 -28 -2 -29 -6 -5 -2 15 -13 35 -24 45 -20 18 -21 18 -57 -25
-37 -45 -84 -72 -124 -70 -14 0 -5 6 24 15 53 16 84 50 94 100 8 42 21 43 62
3z m-748 -51 c0 -77 15 -120 61 -172 85 -97 292 -163 479 -153 52 3 111 10
131 16 87 26 134 85 146 180 3 28 9 53 12 56 12 7 122 -82 149 -120 64 -90 7
-189 -132 -230 -132 -39 -375 -44 -541 -10 -229 47 -463 164 -510 256 -47 90
7 173 140 215 64 20 65 19 65 -38z m217 -134 c116 -44 153 -64 121 -64 -51 0
-248 80 -248 100 0 14 -4 15 127 -36z m-503 -51 c-11 -66 -8 -160 5 -210 47
-172 288 -298 666 -349 245 -33 464 6 557 100 46 45 67 101 86 230 l17 115
235 -149 c129 -82 236 -152 237 -157 3 -11 -249 -205 -397 -305 -147 -99 -310
-188 -397 -217 -75 -25 -174 -27 -258 -6 -87 22 -431 196 -677 344 -117 70
-249 147 -292 172 -156 87 -224 177 -180 235 17 23 377 244 397 244 5 0 5 -21
1 -47z m1771 -228 c307 -176 359 -209 363 -227 2 -9 -12 -21 -37 -32 -50 -23
-105 -80 -126 -130 -25 -59 -37 -193 -25 -278 26 -180 115 -273 315 -329 61
-17 109 -22 201 -23 67 -1 120 -4 117 -9 -18 -30 -482 -333 -643 -420 l-85
-46 0 132 c0 163 -11 190 -114 269 -38 29 -77 66 -87 83 -48 80 -158 165 -216
165 -10 0 -18 3 -17 8 0 4 75 61 166 127 91 66 187 139 212 162 88 78 128 193
101 291 -16 60 -72 117 -172 176 -45 28 -150 92 -233 142 -145 90 -151 95
-177 149 l-27 56 127 -67 c70 -37 231 -126 357 -199z m-1620 25 c11 -17 115
-66 190 -89 39 -12 160 -38 270 -57 253 -43 255 -44 255 -55 0 -17 -141 -9
-272 17 -146 28 -270 65 -339 99 -48 25 -138 95 -121 95 6 0 14 -5 17 -10z
m2386 -140 c120 -23 219 -87 219 -140 0 -31 -55 -85 -112 -111 -46 -21 -67
-24 -168 -23 -94 0 -126 5 -172 23 -74 29 -118 77 -118 130 0 111 144 161 351
121z m-3051 -142 c0 -10 10 -43 22 -75 34 -91 149 -198 313 -292 72 -41 211
-125 310 -187 318 -197 421 -249 575 -290 36 -10 68 -20 73 -24 4 -3 0 -20 -8
-37 -22 -45 -38 -140 -33 -205 2 -32 3 -58 0 -58 -12 0 -327 166 -487 257
-349 199 -861 523 -942 597 -50 45 -73 91 -73 145 0 55 47 105 155 164 80 44
94 45 95 5z m310 -130 c74 -47 252 -152 395 -233 143 -82 294 -171 335 -199
66 -45 72 -51 50 -54 -46 -7 -199 79 -755 424 -94 58 -177 125 -206 165 l-24
34 35 -27 c19 -14 96 -64 170 -110z m2345 35 c9 -87 23 -121 68 -160 111 -97
378 -111 502 -25 55 38 75 77 83 167 l7 77 47 -41 c51 -45 88 -111 88 -157 -1
-76 -97 -166 -220 -205 -138 -44 -354 -35 -506 22 -80 30 -167 98 -193 151
-27 57 -27 94 3 143 21 34 88 93 107 95 4 0 10 -30 14 -67z m-518 -198 c-27
-25 -88 -66 -135 -92 -48 -25 -113 -61 -146 -80 -32 -19 -60 -32 -63 -29 -2 2
26 29 64 59 170 137 402 254 280 142z m1129 -240 c16 -53 17 -118 2 -133 -16
-16 -23 -15 -42 4 -16 16 -23 124 -10 159 11 28 38 12 50 -30z m188 -25 c-32
-59 -85 -110 -146 -141 l-43 -22 52 47 c29 26 76 79 104 119 58 79 76 77 33
-3z m-280 28 c17 -24 22 -143 8 -166 -9 -14 -30 4 -51 45 -22 42 -9 143 19
143 5 0 16 -10 24 -22z m-3319 -132 c33 -22 170 -112 305 -201 479 -317 989
-625 1249 -755 115 -58 173 -100 138 -100 -26 0 -133 43 -232 92 -187 95 -647
379 -1115 691 -348 232 -422 287 -460 342 -41 59 -38 62 13 12 23 -23 69 -60
102 -81z m1529 77 c9 -59 7 -201 -3 -208 -18 -11 -34 39 -39 117 -2 42 -2 88
2 102 10 39 32 32 40 -11z m484 -23 c166 -27 252 -85 252 -170 0 -40 -58 -94
-129 -120 -194 -73 -408 -35 -461 83 -24 52 -24 70 -4 113 38 80 182 120 342
94z m1581 -142 c-25 -47 -209 -216 -319 -294 -173 -121 -369 -261 -525 -374
-139 -100 -243 -166 -250 -158 -6 6 32 35 433 330 374 276 612 459 646 497 25
27 30 27 15 -1z m-1943 -229 c44 -80 123 -129 239 -150 136 -23 281 8 351 76
48 45 64 91 64 178 0 31 4 57 9 57 4 0 29 -16 54 -35 118 -90 130 -224 26
-305 -92 -74 -249 -120 -403 -120 -212 0 -426 81 -502 191 -24 35 -29 53 -29
99 0 47 5 63 29 94 16 21 49 51 75 67 l46 30 7 -65 c4 -43 16 -83 34 -117z
m-186 -354 c24 -36 62 -83 86 -103 51 -45 148 -94 230 -116 197 -54 460 -13
600 93 11 9 1 -3 -23 -26 -89 -85 -219 -127 -388 -126 -176 1 -357 63 -443
152 -55 57 -131 191 -108 191 2 0 23 -29 46 -65z m795 -37 c30 -66 28 -100 -8
-122 -31 -19 -47 17 -47 106 0 98 16 103 55 16z m-79 30 c10 -17 7 -99 -6
-148 -10 -36 -13 -40 -27 -28 -40 33 -55 126 -27 166 16 24 48 29 60 10z"/>
<path d="M2098 4750 c-44 -13 -84 -41 -102 -70 -22 -39 -20 -47 7 -23 41 38
84 53 149 53 84 0 105 14 56 35 -40 16 -68 18 -110 5z"/>
<path d="M1731 4625 c-2 -45 -54 -126 -150 -235 -55 -63 -110 -133 -121 -156
-21 -43 -26 -116 -10 -158 27 -72 210 -216 210 -166 0 5 -34 32 -75 60 -84 57
-105 88 -105 158 0 62 31 125 111 222 34 41 77 98 95 125 34 51 60 133 51 157
-3 8 -6 5 -6 -7z"/>
<path d="M2133 4555 c-41 -17 -76 -73 -104 -166 -47 -156 -19 -296 72 -356 37
-24 52 -28 115 -28 88 0 117 17 154 90 68 137 -9 399 -133 456 -50 22 -62 23
-104 4z m142 -67 c72 -73 113 -234 86 -336 -16 -58 -62 -108 -107 -117 -20 -3
-38 -5 -40 -3 -2 2 9 33 24 68 24 58 27 77 26 170 -1 98 -13 158 -49 243 -13
31 16 19 60 -25z"/>
<path d="M2663 4465 c-51 -36 -77 -182 -49 -277 21 -72 55 -102 106 -94 21 3
45 16 59 33 21 25 23 33 19 107 -6 91 -37 186 -74 223 -27 27 -33 28 -61 8z
m92 -94 c9 -25 19 -83 22 -129 5 -77 4 -84 -17 -107 -13 -14 -32 -25 -42 -25
-18 0 -18 1 -1 33 25 48 22 185 -6 257 -26 68 -26 68 3 40 14 -12 32 -43 41
-69z"/>
<path d="M2517 4082 c-42 -46 -54 -170 -19 -204 24 -24 91 -29 116 -9 47 39
40 149 -14 203 -33 32 -60 36 -83 10z m119 -109 c7 -36 -12 -75 -46 -93 -18
-10 -18 -8 -8 21 10 30 7 116 -6 154 -5 13 3 8 23 -15 17 -19 34 -49 37 -67z"/>
<path d="M2371 2518 c-5 -13 -17 -44 -26 -70 -44 -124 -179 -161 -455 -123
-136 19 -253 20 -248 3 19 -56 208 -98 441 -98 342 0 494 117 357 274 -37 41
-57 45 -69 14z"/>
<path d="M2661 2212 c-6 -11 -11 -47 -11 -79 0 -131 -26 -164 -310 -399 -191
-158 -223 -190 -199 -205 31 -19 119 20 310 136 79 49 189 115 244 148 183
110 255 177 255 234 0 31 -40 74 -119 128 -83 57 -151 71 -170 37z"/>
<path d="M3453 2018 c7 -51 53 -98 115 -116 51 -16 149 -15 243 2 87 16 119
30 119 52 0 13 -7 14 -42 8 -65 -12 -195 -7 -278 10 -64 13 -79 21 -105 51
-42 49 -59 47 -52 -7z"/>
<path d="M3287 1857 c-21 -32 -22 -88 -3 -126 22 -41 92 -100 150 -126 159
-70 279 -83 421 -46 71 19 117 43 104 55 -2 2 -49 -2 -104 -10 -121 -15 -210
-3 -326 45 -147 61 -199 107 -216 190 l-8 45 -18 -27z"/>
<path d="M2270 1255 c0 -66 37 -106 125 -135 49 -16 171 -14 270 5 86 16 115
29 115 52 0 13 -9 14 -57 8 -100 -12 -193 -7 -311 17 -44 10 -60 19 -85 50
-38 48 -57 49 -57 3z"/>
<path d="M2092 1098 c-16 -16 -15 -121 2 -161 43 -104 273 -207 461 -207 98 0
168 19 215 59 l35 29 -65 -15 c-126 -29 -315 3 -468 81 -83 42 -108 70 -133
144 -25 78 -31 86 -47 70z"/>
<path d="M3195 4353 c-44 -9 -101 -36 -124 -56 -47 -43 -65 -129 -40 -194 14
-39 67 -91 98 -98 16 -4 32 -18 41 -38 14 -31 17 -32 75 -33 68 0 155 35 155
63 0 9 10 36 21 61 36 74 12 200 -49 255 -40 36 -117 54 -177 40z m121 -32
c89 -40 133 -178 84 -259 -11 -18 -20 -43 -20 -57 0 -32 -17 -41 -39 -21 -17
16 -19 15 -24 -4 -6 -23 -29 -26 -47 -5 -11 13 -14 12 -30 -7 -22 -27 -47 -18
-61 22 -6 16 -18 30 -26 30 -55 0 -113 80 -113 154 0 60 20 98 65 125 74 43
147 51 211 22z"/>
<path d="M3291 4198 c-21 -56 42 -109 69 -58 8 15 8 27 -2 48 -17 36 -55 42
-67 10z"/>
<path d="M3189 4192 c-39 -32 -24 -112 21 -112 32 0 54 92 28 118 -16 16 -22
15 -49 -6z"/>
<path d="M3070 4137 c0 -39 29 -75 75 -93 25 -9 47 -15 50 -12 2 2 -25 31 -60
64 -48 43 -65 55 -65 41z"/>
<path d="M3270 4086 c-13 -17 -6 -36 15 -36 19 0 26 27 11 39 -10 8 -17 7 -26
-3z"/>
<path d="M3986 4286 c-90 -33 -146 -129 -150 -258 -3 -90 5 -118 33 -118 10 0
26 -11 35 -25 10 -15 26 -25 40 -25 13 0 29 -7 36 -15 20 -24 67 -19 85 9 12
17 28 25 64 30 27 3 64 16 82 29 40 26 89 116 89 161 -1 130 -189 257 -314
212z m149 -32 c48 -20 98 -62 122 -102 64 -105 -24 -252 -152 -252 -24 0 -37
-7 -49 -25 -21 -32 -53 -32 -68 -1 -9 21 -16 24 -39 19 -27 -5 -29 -3 -29 26
0 28 -2 30 -19 20 -25 -17 -55 -4 -46 19 5 9 7 25 7 35 -5 91 -2 118 16 158
23 52 77 107 118 118 33 10 96 3 139 -15z"/>
<path d="M3950 4150 c-24 -24 -26 -72 -5 -90 20 -16 61 9 66 42 12 65 -20 89
-61 48z"/>
<path d="M4051 4094 c-25 -32 -27 -76 -5 -98 21 -22 31 -20 59 9 17 16 25 35
25 58 0 60 -43 77 -79 31z"/>
<path d="M3964 4015 c-7 -18 3 -35 21 -35 18 0 26 25 12 39 -15 15 -27 14 -33
-4z"/>
<path d="M4206 4001 c-3 -5 -35 -19 -70 -31 -36 -12 -70 -28 -77 -37 -12 -13
-6 -14 46 -8 67 8 100 25 110 55 7 23 1 38 -9 21z"/>
<path d="M4544 3746 c-55 -24 -102 -74 -119 -126 -9 -28 -21 -52 -26 -55 -5
-4 -9 -15 -9 -26 0 -25 47 -99 63 -99 7 0 17 -10 22 -22 10 -24 14 -24 218
-18 9 0 37 18 62 41 69 64 71 132 6 229 -53 80 -139 110 -217 76z m143 -26
c51 -31 86 -93 90 -158 4 -67 -9 -97 -56 -129 -37 -25 -77 -29 -116 -11 -18 8
-35 8 -58 1 -42 -13 -57 -7 -57 23 0 18 -5 24 -21 24 -17 0 -20 5 -17 25 4 19
1 25 -11 23 -25 -4 -25 34 -1 90 48 112 162 164 247 112z"/>
<path d="M4524 3645 c-20 -31 -12 -55 20 -55 27 0 56 33 56 62 0 29 -56 24
-76 -7z"/>
<path d="M4607 3589 c-22 -13 -39 -53 -31 -73 9 -24 31 -26 58 -5 30 23 36 73
10 83 -19 7 -15 8 -37 -5z"/>
<path d="M4510 3540 c0 -15 5 -20 18 -18 9 2 17 10 17 18 0 8 -8 16 -17 18
-13 2 -18 -3 -18 -18z"/>
<path d="M4623 3473 c-35 -2 -63 -8 -63 -12 0 -12 73 -33 99 -29 13 1 30 13
39 26 12 18 12 22 1 20 -8 -1 -42 -3 -76 -5z"/>
<path d="M3269 3625 c-32 -17 -60 -76 -83 -172 -19 -78 -15 -113 14 -113 18 0
50 62 50 99 0 45 8 51 52 35 61 -21 111 -18 136 9 31 33 28 77 -6 110 -46 45
-115 58 -163 32z m85 -48 c30 -22 16 -52 -23 -52 -41 0 -62 25 -42 49 16 19
41 20 65 3z"/>
<path d="M3504 3554 c-21 -32 -43 -110 -51 -186 -9 -85 25 -126 120 -143 41
-8 67 6 67 36 0 22 -21 35 -73 44 -57 11 -63 32 -29 112 38 90 45 119 32 143
-15 28 -46 25 -66 -6z"/>
<path d="M3814 3486 c-80 -35 -170 -266 -115 -295 28 -15 49 6 61 64 15 66 34
95 65 95 22 0 25 -4 25 -37 0 -21 -6 -61 -14 -90 -12 -43 -12 -55 -1 -70 36
-48 84 54 85 180 0 85 -17 139 -48 156 -25 13 -20 13 -58 -3z m45 -55 c14 -9
9 -41 -7 -41 -17 0 -45 27 -38 38 9 14 26 15 45 3z"/>
<path d="M3993 3404 c-26 -41 -25 -154 2 -184 15 -17 20 -37 20 -79 0 -71 22
-76 46 -11 14 37 22 46 48 51 40 8 58 24 80 68 39 78 37 131 -3 131 -28 0 -42
-15 -52 -55 -13 -57 -34 -86 -57 -83 -21 3 -22 8 -22 93 0 85 -1 90 -22 93
-15 2 -27 -6 -40 -24z"/>
<path d="M2787 3373 c-18 -21 -47 -168 -47 -239 0 -104 60 -99 119 11 l22 40
-7 -53 c-7 -58 7 -107 34 -117 28 -11 66 29 109 116 52 103 62 145 39 167 -14
15 -17 14 -39 -6 -12 -12 -36 -57 -52 -101 -16 -44 -31 -79 -33 -76 -2 2 1 35
8 73 8 52 9 80 0 111 -17 64 -38 51 -93 -59 -26 -52 -45 -86 -43 -75 26 117
36 198 25 211 -15 18 -23 18 -42 -3z"/>
<path d="M3123 3269 c-18 -18 -16 -33 8 -55 21 -19 21 -23 -7 -121 -12 -45
-18 -52 -42 -55 -33 -4 -41 -37 -15 -60 27 -24 92 -39 114 -27 24 12 24 38 2
54 -15 11 -15 18 3 94 16 70 22 81 40 81 26 0 48 24 41 44 -15 39 -119 71
-144 45z"/>
<path d="M3310 3195 c-10 -13 -10 -19 4 -34 10 -11 28 -22 42 -25 30 -8 30
-13 -1 -116 -29 -97 -31 -126 -9 -134 47 -18 68 14 87 136 l13 83 42 -3 c33
-3 43 0 49 14 20 52 -189 125 -227 79z"/>
<path d="M3588 3133 c-18 -20 -78 -227 -78 -266 0 -27 25 -48 47 -40 12 4 19
27 37 106 7 30 30 35 59 13 19 -15 22 -45 8 -94 -6 -18 -7 -40 -4 -48 6 -17
37 -18 51 -1 12 14 62 229 62 265 0 36 -32 23 -56 -23 -17 -32 -26 -39 -45
-37 -40 4 -53 25 -41 62 7 20 8 39 2 55 -11 30 -21 31 -42 8z"/>
<path d="M3946 3011 c-9 -10 -31 -75 -48 -144 -26 -104 -29 -129 -19 -141 10
-12 18 -13 32 -6 27 15 37 39 50 121 16 106 26 105 15 -2 -10 -98 -1 -139 32
-139 26 0 46 25 81 100 34 74 37 75 16 6 -23 -77 -18 -146 11 -146 19 0 32 28
54 117 20 78 25 157 14 187 -17 44 -82 1 -123 -81 -26 -51 -33 -55 -20 -11 15
54 11 103 -12 132 -24 31 -59 34 -83 7z"/>
<path d="M4263 2915 c-27 -19 -73 -135 -80 -201 -5 -47 -3 -52 26 -77 52 -43
141 -61 141 -28 0 6 -21 23 -47 38 -27 15 -51 32 -55 37 -14 21 11 29 50 17
86 -29 109 8 28 44 -62 27 -73 43 -56 74 9 18 20 21 73 21 36 0 71 6 81 13 16
12 16 14 -6 33 -45 41 -118 55 -155 29z"/>
</g>
</svg>
